<svg xmlns="http://www.w3.org/2000/svg" width="48.653" height="48.653" viewBox="0 0 48.653 48.653">
  <g id="Icon_feather-settings" data-name="Icon feather-settings" transform="translate(1.5 1.5)">
    <path id="Trazado_8" data-name="Trazado 8" d="M25.951,19.725A6.225,6.225,0,1,1,19.725,13.5,6.225,6.225,0,0,1,25.951,19.725Z" transform="translate(3.101 3.101)" fill="none" stroke="#fff" stroke-linecap="round" stroke-linejoin="round" stroke-width="3"/>
    <path id="Trazado_9" data-name="Trazado 9" d="M39.682,30.552a3.424,3.424,0,0,0,.685,3.777l.125.125a4.153,4.153,0,1,1-5.873,5.873l-.125-.125a3.452,3.452,0,0,0-5.852,2.449V43a4.15,4.15,0,0,1-8.3,0v-.187A3.424,3.424,0,0,0,18.1,39.682a3.424,3.424,0,0,0-3.777.685l-.125.125a4.153,4.153,0,1,1-5.873-5.873l.125-.125A3.452,3.452,0,0,0,6,28.643H5.65a4.15,4.15,0,0,1,0-8.3h.187A3.424,3.424,0,0,0,8.97,18.1a3.424,3.424,0,0,0-.685-3.777L8.161,14.2a4.153,4.153,0,1,1,5.873-5.873l.125.125a3.424,3.424,0,0,0,3.777.685H18.1A3.424,3.424,0,0,0,20.176,6V5.65a4.15,4.15,0,0,1,8.3,0v.187a3.452,3.452,0,0,0,5.852,2.449l.125-.125a4.153,4.153,0,1,1,5.873,5.873l-.125.125a3.424,3.424,0,0,0-.685,3.777V18.1a3.424,3.424,0,0,0,3.133,2.075H43a4.15,4.15,0,0,1,0,8.3h-.187a3.424,3.424,0,0,0-3.133,2.075Z" transform="translate(-1.5 -1.5)" fill="none" stroke="#fff" stroke-linecap="round" stroke-linejoin="round" stroke-width="3"/>
  </g>
</svg>
